<svg width="80" height="80" viewBox="-0.486 20 20 20" fill="none" xmlns="http://www.w3.org/2000/svg">
<path d="M14.8 29.507a5.147 5.147 0 00.137-1.686c-.205-2.689-2.406-4.853-5.04-5.036a5.446 5.446 0 00-5.766 5.446c0 .433.046.843.137 1.253l.068.274.068.205c0 .046.023.114.045.16l1.317 3.827c.023.114.204.114.25 0l.43-1.23.092-.273c.136-.41.726-.388.84.022l.227.866 1.793 6.563a.142.142 0 00.272 0l1.794-6.563.227-.866c.113-.41.703-.433.84-.022l.09.273.432 1.23c.022.114.204.114.25 0l1.316-3.782.068-.205c0-.011.006-.029.011-.046a.176.176 0 00.012-.045c.01-.05.024-.1.039-.151.019-.067.039-.137.051-.214z" fill="black"/>
</svg>
